<mxfile host="app.diagrams.net" modified="2024-03-09T23:30:59.839Z" agent="Mozilla/5.0 (Windows NT 10.0; Win64; x64) AppleWebKit/537.36 (KHTML, like Gecko) Chrome/122.0.0.0 Safari/537.36 Edg/122.0.0.0" etag="xv6nvdbYi5tC4Wy3gZS7" version="24.0.3" type="device">
  <diagram name="Página-1" id="EeqcccR-9L2aodcihwOR">
    <mxGraphModel dx="3549" dy="2795" grid="1" gridSize="10" guides="1" tooltips="1" connect="1" arrows="1" fold="1" page="1" pageScale="1" pageWidth="827" pageHeight="1169" math="0" shadow="0">
      <root>
        <mxCell id="0" />
        <mxCell id="1" parent="0" />
        <mxCell id="WJraT6K_l9Th-sm4liey-32" value="" style="edgeStyle=orthogonalEdgeStyle;rounded=0;orthogonalLoop=1;jettySize=auto;html=1;entryX=0.5;entryY=0;entryDx=0;entryDy=0;" edge="1" parent="1" source="WJraT6K_l9Th-sm4liey-1" target="WJraT6K_l9Th-sm4liey-2">
          <mxGeometry relative="1" as="geometry">
            <mxPoint x="740" y="-309.9999999999998" as="targetPoint" />
          </mxGeometry>
        </mxCell>
        <mxCell id="WJraT6K_l9Th-sm4liey-1" value="INICIO" style="ellipse;whiteSpace=wrap;html=1;fillColor=#99CCFF;" vertex="1" parent="1">
          <mxGeometry x="680" y="-480" width="120" height="80" as="geometry" />
        </mxCell>
        <mxCell id="WJraT6K_l9Th-sm4liey-30" value="" style="edgeStyle=orthogonalEdgeStyle;rounded=0;orthogonalLoop=1;jettySize=auto;html=1;entryX=0.5;entryY=0;entryDx=0;entryDy=0;" edge="1" parent="1" source="WJraT6K_l9Th-sm4liey-2" target="WJraT6K_l9Th-sm4liey-9">
          <mxGeometry relative="1" as="geometry">
            <mxPoint x="750" y="-139.99999999999977" as="targetPoint" />
          </mxGeometry>
        </mxCell>
        <mxCell id="WJraT6K_l9Th-sm4liey-2" value="&quot;Solicitar numero al usuario&quot;" style="shape=parallelogram;perimeter=parallelogramPerimeter;whiteSpace=wrap;html=1;fixedSize=1;fillColor=#80FF00;" vertex="1" parent="1">
          <mxGeometry x="605" y="-240" width="270" height="60" as="geometry" />
        </mxCell>
        <mxCell id="WJraT6K_l9Th-sm4liey-11" value="" style="edgeStyle=orthogonalEdgeStyle;rounded=0;orthogonalLoop=1;jettySize=auto;html=1;" edge="1" parent="1" source="WJraT6K_l9Th-sm4liey-9" target="WJraT6K_l9Th-sm4liey-10">
          <mxGeometry relative="1" as="geometry" />
        </mxCell>
        <mxCell id="WJraT6K_l9Th-sm4liey-9" value="&quot;Ingresar numero&quot;" style="shape=parallelogram;perimeter=parallelogramPerimeter;whiteSpace=wrap;html=1;fixedSize=1;fillColor=#80FF00;" vertex="1" parent="1">
          <mxGeometry x="610" y="40" width="260" height="60" as="geometry" />
        </mxCell>
        <mxCell id="WJraT6K_l9Th-sm4liey-13" value="" style="edgeStyle=orthogonalEdgeStyle;rounded=0;orthogonalLoop=1;jettySize=auto;html=1;" edge="1" parent="1" source="WJraT6K_l9Th-sm4liey-10" target="WJraT6K_l9Th-sm4liey-12">
          <mxGeometry relative="1" as="geometry" />
        </mxCell>
        <mxCell id="WJraT6K_l9Th-sm4liey-10" value="Verificar si el numero es menor o igual a 100" style="rhombus;whiteSpace=wrap;html=1;fillColor=#474D0A;" vertex="1" parent="1">
          <mxGeometry x="640" y="300" width="200" height="190" as="geometry" />
        </mxCell>
        <mxCell id="WJraT6K_l9Th-sm4liey-15" value="" style="edgeStyle=orthogonalEdgeStyle;rounded=0;orthogonalLoop=1;jettySize=auto;html=1;" edge="1" parent="1" source="WJraT6K_l9Th-sm4liey-12">
          <mxGeometry relative="1" as="geometry">
            <mxPoint x="1325" y="160" as="targetPoint" />
          </mxGeometry>
        </mxCell>
        <mxCell id="WJraT6K_l9Th-sm4liey-12" value="Si cumple la condicion, mostrar en pantalla: ingrese de nuevo un numero" style="shape=parallelogram;perimeter=parallelogramPerimeter;whiteSpace=wrap;html=1;fixedSize=1;fillColor=#80FF00;" vertex="1" parent="1">
          <mxGeometry x="1190" y="365" width="270" height="60" as="geometry" />
        </mxCell>
        <mxCell id="WJraT6K_l9Th-sm4liey-19" value="" style="edgeStyle=orthogonalEdgeStyle;rounded=0;orthogonalLoop=1;jettySize=auto;html=1;" edge="1" parent="1" source="WJraT6K_l9Th-sm4liey-17" target="WJraT6K_l9Th-sm4liey-18">
          <mxGeometry relative="1" as="geometry" />
        </mxCell>
        <mxCell id="WJraT6K_l9Th-sm4liey-23" value="" style="edgeStyle=orthogonalEdgeStyle;rounded=0;orthogonalLoop=1;jettySize=auto;html=1;" edge="1" parent="1" source="WJraT6K_l9Th-sm4liey-17" target="WJraT6K_l9Th-sm4liey-22">
          <mxGeometry relative="1" as="geometry" />
        </mxCell>
        <mxCell id="WJraT6K_l9Th-sm4liey-17" value="¿El numero es mayor a 100?" style="rhombus;whiteSpace=wrap;html=1;fillColor=#474D0A;" vertex="1" parent="1">
          <mxGeometry x="1237.5" y="-15" width="175" height="170" as="geometry" />
        </mxCell>
        <mxCell id="WJraT6K_l9Th-sm4liey-21" value="" style="edgeStyle=orthogonalEdgeStyle;rounded=0;orthogonalLoop=1;jettySize=auto;html=1;entryX=1;entryY=0.5;entryDx=0;entryDy=0;" edge="1" parent="1" source="WJraT6K_l9Th-sm4liey-18" target="WJraT6K_l9Th-sm4liey-9">
          <mxGeometry relative="1" as="geometry">
            <mxPoint x="920" y="70" as="targetPoint" />
          </mxGeometry>
        </mxCell>
        <mxCell id="WJraT6K_l9Th-sm4liey-18" value="NO" style="shape=parallelogram;perimeter=parallelogramPerimeter;whiteSpace=wrap;html=1;fixedSize=1;fillColor=#80FF00;" vertex="1" parent="1">
          <mxGeometry x="1010" y="40" width="120" height="60" as="geometry" />
        </mxCell>
        <mxCell id="WJraT6K_l9Th-sm4liey-25" value="" style="edgeStyle=orthogonalEdgeStyle;rounded=0;orthogonalLoop=1;jettySize=auto;html=1;" edge="1" parent="1" source="WJraT6K_l9Th-sm4liey-22" target="WJraT6K_l9Th-sm4liey-24">
          <mxGeometry relative="1" as="geometry" />
        </mxCell>
        <mxCell id="WJraT6K_l9Th-sm4liey-22" value="Si" style="shape=parallelogram;perimeter=parallelogramPerimeter;whiteSpace=wrap;html=1;fixedSize=1;fillColor=#80FF00;" vertex="1" parent="1">
          <mxGeometry x="1520" y="40" width="120" height="60" as="geometry" />
        </mxCell>
        <mxCell id="WJraT6K_l9Th-sm4liey-28" value="" style="edgeStyle=orthogonalEdgeStyle;rounded=0;orthogonalLoop=1;jettySize=auto;html=1;" edge="1" parent="1" source="WJraT6K_l9Th-sm4liey-24" target="WJraT6K_l9Th-sm4liey-26">
          <mxGeometry relative="1" as="geometry" />
        </mxCell>
        <mxCell id="WJraT6K_l9Th-sm4liey-24" value="Mostrar en pantalla: Has ingresado un numero mayor a 100" style="shape=parallelogram;perimeter=parallelogramPerimeter;whiteSpace=wrap;html=1;fixedSize=1;fillColor=#80FF00;" vertex="1" parent="1">
          <mxGeometry x="1730" y="20" width="360" height="100" as="geometry" />
        </mxCell>
        <mxCell id="WJraT6K_l9Th-sm4liey-26" value="FIN" style="ellipse;whiteSpace=wrap;html=1;fillColor=#99CCFF;" vertex="1" parent="1">
          <mxGeometry x="2190" y="30" width="120" height="80" as="geometry" />
        </mxCell>
      </root>
    </mxGraphModel>
  </diagram>
</mxfile>
